<!-- Generator: Adobe Illustrator 24.0.1, SVG Export Plug-In  -->
<svg version="1.1" xmlns="http://www.w3.org/2000/svg" xmlns:xlink="http://www.w3.org/1999/xlink" x="0px" y="0px" width="800px"
  height="800px" viewBox="0 0 800 800" style="enable-background:new 0 0 800 800;" xml:space="preserve">
<style type="text/css">
 .st0{fill:#FFFFFF;}
</style>
<defs>
</defs>
<g>
 <path class="st0" d="M400,28.5C194.8,28.5,28.5,194.8,28.5,400S194.8,771.5,400,771.5S771.5,605.2,771.5,400S605.2,28.5,400,28.5z
   M473.8,643.9c-158.1,0-286.2-128.1-286.2-286.2S315.7,71.5,473.8,71.5S760,199.6,760,357.7S631.9,643.9,473.8,643.9z"/>
 <path class="st0" d="M531,104.2c-121.6,0-220.2,98.6-220.2,220.2S409.4,544.5,531,544.5s220.2-98.6,220.2-220.2
  S652.6,104.2,531,104.2z M574.7,468.9c-93.7,0-169.6-75.9-169.6-169.6S481,129.6,574.7,129.6s169.6,75.9,169.6,169.6
  S668.4,468.9,574.7,468.9z"/>
</g>
</svg>
